<svg width="32" height="33" viewBox="0 0 32 33" fill="none" xmlns="http://www.w3.org/2000/svg">
<rect y="0.539062" width="32" height="32" rx="1" fill="white"/>
<path fill-rule="evenodd" clip-rule="evenodd" d="M20.0153 16.3314C20.2812 15.6741 19.7974 14.9565 19.0883 14.9565H18.9047C18.3525 14.9565 17.9047 14.5088 17.9047 13.9565V12.8466C17.9047 12.2643 18.3826 12.3191 18.9714 12.3191H19.0381C19.5904 12.3191 20.0381 11.8714 20.0381 11.3191V10.6818C20.0381 10.1295 19.5904 9.68176 19.0381 9.68176H17.9047C17.0561 9.68176 16.2421 10.0152 15.642 10.6087C15.0419 11.2022 14.7047 12.0072 14.7047 12.8466V13.9565C14.7047 14.5088 14.257 14.9565 13.7047 14.9565H13.5714C13.0191 14.9565 12.5714 15.4042 12.5714 15.9565V16.5938C12.5714 17.1461 13.0191 17.5939 13.5714 17.5939H13.7047C14.257 17.5939 14.7047 18.0416 14.7047 18.5939V22.396C14.7047 22.9483 15.1525 23.396 15.7047 23.396H16.9047C17.457 23.396 17.9047 22.9483 17.9047 22.396V18.5495C17.9047 18.0217 18.3326 17.5939 18.8604 17.5939V17.5939C19.2498 17.5939 19.6003 17.3575 19.7463 16.9965L20.0153 16.3314Z" fill="#9893A3"/>
</svg>
