<svg width="32" height="33" viewBox="0 0 32 33" fill="none" xmlns="http://www.w3.org/2000/svg">
<rect y="0.539062" width="32" height="32" rx="1" fill="white"/>
<g clip-path="url(#clip0_1_323)">
<path d="M13.0716 14.6134H10.468V22.238H13.0716V14.6134Z" fill="#9893A3"/>
<path d="M12.6339 11.0552C12.3858 10.905 12.0942 10.8248 11.7959 10.8248C11.5968 10.8248 11.3997 10.8605 11.216 10.9298C11.0322 10.9992 10.8653 11.1009 10.725 11.229C10.5847 11.3571 10.4736 11.5091 10.3982 11.6763C10.3229 11.8435 10.2846 12.0225 10.2858 12.2032C10.2875 12.4739 10.3775 12.7381 10.5445 12.9624C10.7115 13.1868 10.9479 13.3612 11.224 13.4637C11.5 13.5663 11.8034 13.5923 12.0957 13.5385C12.3881 13.4848 12.6564 13.3536 12.8667 13.1616C13.077 12.9696 13.22 12.7254 13.2775 12.4598C13.3351 12.1942 13.3047 11.919 13.1901 11.669C13.0756 11.419 12.882 11.2055 12.6339 11.0552Z" fill="#9893A3"/>
<path d="M17.2508 14.613H14.7427L14.7341 22.2533H17.3376V18.4804C17.3376 17.488 17.5459 16.527 18.8998 16.527C20.2536 16.527 20.2536 17.6692 20.2536 18.5513V22.2376H22.8572V18.0551C22.8572 15.9993 22.3278 14.424 19.7242 14.424C19.228 14.4064 18.7358 14.5114 18.3002 14.7278C17.8646 14.9442 17.5019 15.2639 17.2508 15.6527V14.613Z" fill="#9893A3"/>
</g>
<defs>
<clipPath id="clip0_1_323">
<rect x="8.72742" y="10.236" width="15.5152" height="12.6032" rx="1" fill="white"/>
</clipPath>
</defs>
</svg>
