<svg width="85" height="33" viewBox="0 0 85 33" fill="none" xmlns="http://www.w3.org/2000/svg">
<path d="M0.15625 18.8354H2.67457V29.5705H0.15625V18.8354Z" fill="#9893A3" fill-opacity="0.6"/>
<path fill-rule="evenodd" clip-rule="evenodd" d="M6.89682 22.2869C5.22206 22.8924 4.13206 24.3156 4.13546 25.8925C4.12409 26.9284 4.59299 27.9246 5.43637 28.6564C6.27974 29.3883 7.42655 29.794 8.61807 29.7822C10.4319 29.7822 12.0669 28.8319 12.7603 27.3748C13.4536 25.9177 13.0685 24.2409 11.7848 23.127C10.501 22.013 8.57159 21.6814 6.89682 22.2869ZM8.58522 24.2434C9.65401 24.2275 10.5378 24.9635 10.5654 25.8925C10.5938 26.3526 10.3995 26.802 10.0295 27.1319C9.65956 27.4619 9.14772 27.6422 8.61793 27.6294C7.549 27.629 6.68013 26.8797 6.67115 25.9505C6.66217 25.0212 7.51644 24.2593 8.58522 24.2434Z" fill="#9893A3" fill-opacity="0.6"/>
<path fill-rule="evenodd" clip-rule="evenodd" d="M33.3439 29.2374V22.2461L30.8676 22.268V22.9978C30.2645 22.3584 29.3497 22.0041 28.3996 22.0418C26.0259 22.0418 24.1017 23.7147 24.1017 25.7783C24.1017 27.8419 26.0259 29.5148 28.3996 29.5148C29.3505 29.556 30.2671 29.201 30.8676 28.5587V29.2374C30.9164 29.6885 30.7215 30.1336 30.3401 30.4423C29.9587 30.751 29.4341 30.8882 28.9201 30.8138C28.1315 30.8705 27.383 30.5032 27.0313 29.8869L24.8656 30.9743C25.7121 32.1723 27.257 32.8593 28.8697 32.755C31.1194 32.755 33.3439 31.7114 33.3439 29.2374ZM29.663 24.082C30.425 24.3808 30.9017 25.0521 30.8675 25.7782C30.8831 26.2481 30.6693 26.7017 30.2791 27.0271C29.8889 27.3524 29.3586 27.5191 28.8192 27.4859C27.9833 27.4853 27.2317 27.0432 26.9202 26.3688C26.6088 25.6944 26.7999 24.9231 27.4033 24.4201C28.0066 23.9171 28.901 23.7833 29.663 24.082Z" fill="#9893A3" fill-opacity="0.6"/>
<path fill-rule="evenodd" clip-rule="evenodd" d="M16.7325 22.3379C15.0577 22.9434 13.9678 24.3666 13.9711 25.9435C13.9598 26.9794 14.4287 27.9756 15.2721 28.7075C16.1154 29.4393 17.2622 29.8451 18.4538 29.8332C20.2676 29.8332 21.9026 28.883 22.596 27.4258C23.2893 25.9687 22.9042 24.292 21.6205 23.178C20.3367 22.064 18.4073 21.7324 16.7325 22.3379ZM18.4209 24.2944C19.4897 24.2785 20.3735 25.0145 20.4011 25.9435H20.3844C20.4124 26.401 20.2203 26.8481 19.8541 27.1775C19.4879 27.507 18.9805 27.6891 18.4536 27.6804C17.3847 27.6801 16.5158 26.9308 16.5069 26.0015C16.4979 25.0722 17.3521 24.3104 18.4209 24.2944Z" fill="#9893A3" fill-opacity="0.6"/>
<path fill-rule="evenodd" clip-rule="evenodd" d="M36.3385 18.9158C35.4947 18.9158 34.8107 19.5104 34.8107 20.244C34.8153 20.9759 35.4966 21.5682 36.3385 21.5722C37.1822 21.5722 37.8662 20.9775 37.8662 20.244C37.8662 19.5104 37.1822 18.9158 36.3385 18.9158ZM37.5892 22.2144H35.0708V29.5706H37.5892V22.2144Z" fill="#9893A3" fill-opacity="0.6"/>
<path fill-rule="evenodd" clip-rule="evenodd" d="M47.4818 28.5677C48.2398 27.8375 48.6314 26.8746 48.5697 25.8925C48.6291 24.9116 48.2365 23.9506 47.4787 23.222C46.721 22.4934 45.6606 22.0572 44.532 22.0101C43.5811 21.9704 42.6589 22.2991 42.0137 22.9077V22.2144H39.4954V32.5335H42.0137V28.8846C42.6589 29.4932 43.5811 29.8219 44.532 29.7822C45.6621 29.7351 46.7238 29.298 47.4818 28.5677ZM44.0202 24.1854C45.1195 24.1773 46.0233 24.937 46.0512 25.8924H46.0344C46.0743 26.3758 45.8719 26.8505 45.4794 27.1946C45.0869 27.5387 44.5424 27.7184 43.9862 27.6877C42.8871 27.6635 42.0133 26.8777 42.0226 25.922C42.0319 24.9662 42.9208 24.1934 44.0202 24.1854Z" fill="#9893A3" fill-opacity="0.6"/>
<path d="M56.4107 27.3667C56.4107 29.0598 54.7318 29.7822 52.885 29.7822C51.3757 29.8984 49.9368 29.205 49.2502 28.0308L51.4496 26.9434C51.6335 27.4904 52.2311 27.8519 52.885 27.8118C53.4978 27.8118 53.8 27.644 53.8 27.3521C53.8 26.542 49.6028 26.9726 49.6028 24.4329C49.6028 22.8274 51.1642 22.0174 52.9606 22.0174C54.3105 21.9817 55.5765 22.5851 56.268 23.5937L54.0602 24.6008C53.861 24.207 53.4134 23.9524 52.9186 23.9513C52.4821 23.9513 52.2135 24.0972 52.2135 24.3673C52.247 25.2065 56.4107 24.6446 56.4107 27.3667Z" fill="#9893A3" fill-opacity="0.6"/>
<path d="M65.6785 22.2144V29.5705H63.1602V28.8846C62.5659 29.5028 61.6672 29.8365 60.7426 29.7822C59.0637 29.7822 57.5779 28.724 57.5779 26.7317V22.2144H60.0962V26.4106C60.0514 26.7727 60.1963 27.1332 60.4909 27.3922C60.7856 27.6511 61.1986 27.7811 61.6156 27.7461C62.539 27.7461 63.1853 27.279 63.1853 26.2354V22.2144H65.6785Z" fill="#9893A3" fill-opacity="0.6"/>
<path d="M80.2354 25.0604V29.5704H77.7171V25.2501C77.7171 24.5203 77.3057 24.0387 76.4999 24.0387C75.694 24.0387 75.1736 24.5568 75.1736 25.4252V29.5704H72.6552V25.2501C72.6552 24.5203 72.2523 24.0387 71.4381 24.0387C70.6238 24.0387 70.1201 24.5568 70.1201 25.4252V29.5704H67.6018V22.2142H70.1201V22.8929C70.6549 22.2839 71.5079 21.9516 72.3866 22.0099C73.2701 21.9726 74.1114 22.341 74.6027 22.9805C75.1738 22.3124 76.0993 21.9459 77.0539 22.0099C78.9678 22.0099 80.2354 23.2213 80.2354 25.0604Z" fill="#9893A3" fill-opacity="0.6"/>
<path d="M82.3851 22.1705C83.4236 22.1705 84.2655 21.4387 84.2655 20.5358C84.2655 19.633 83.4236 18.9011 82.3851 18.9011C81.3466 18.9011 80.5048 19.633 80.5048 20.5358C80.5048 21.4387 81.3466 22.1705 82.3851 22.1705Z" fill="#9893A3" fill-opacity="0.6"/>
<path d="M24.5862 14.3009C28.4522 14.3009 31.5862 11.2461 31.5862 7.47782C31.5862 3.70956 28.4522 0.654785 24.5862 0.654785C20.7202 0.654785 17.5862 3.70956 17.5862 7.47782C17.5862 11.2461 20.7202 14.3009 24.5862 14.3009Z" fill="#9893A3" fill-opacity="0.4"/>
<path d="M42.0156 14.3009C45.8816 14.3009 49.0156 11.2461 49.0156 7.47782C49.0156 3.70956 45.8816 0.654785 42.0156 0.654785C38.1496 0.654785 35.0156 3.70956 35.0156 7.47782C35.0156 11.2461 38.1496 14.3009 42.0156 14.3009Z" fill="#CFCFDE" fill-opacity="0.5"/>
<rect x="0.15625" y="0.654785" width="14" height="13.6461" fill="#9893A3" fill-opacity="0.5"/>
</svg>
