<svg width="32" height="33" viewBox="0 0 32 33" fill="none" xmlns="http://www.w3.org/2000/svg">
<rect y="0.539062" width="32" height="32" rx="1" fill="white"/>
<g clip-path="url(#clip0_1_319)">
<path d="M24.2415 11.7288C23.8094 12.3715 23.2794 12.9193 22.6513 13.3723C22.6575 13.4938 22.6606 13.6311 22.6606 13.7843C22.6606 14.6352 22.5365 15.4871 22.2884 16.3401C22.0403 17.1931 21.6613 18.0095 21.1514 18.7894C20.6415 19.5694 20.0342 20.2603 19.3293 20.8623C18.6245 21.4642 17.7772 21.9442 16.7876 22.3022C15.7979 22.6601 14.7372 22.8391 13.6056 22.8391C11.8395 22.8391 10.213 22.3623 8.72632 21.4088C8.9902 21.4381 9.24327 21.4528 9.48556 21.4528C10.961 21.4528 12.2788 20.9984 13.439 20.0894C12.7511 20.0768 12.135 19.8651 11.5907 19.4541C11.0464 19.0432 10.6719 18.5181 10.4671 17.8789C10.6695 17.9175 10.8693 17.9367 11.0665 17.9367C11.3504 17.9367 11.6297 17.8997 11.9044 17.8257C11.1703 17.6786 10.5612 17.313 10.0773 16.7287C9.59336 16.1444 9.3514 15.4701 9.3514 14.7056V14.6662C9.80203 14.9157 10.2827 15.0484 10.7934 15.0644C10.3585 14.7744 10.0137 14.3963 9.75895 13.9301C9.5042 13.4638 9.37683 12.9593 9.37683 12.4164C9.37683 11.8439 9.5203 11.3107 9.80724 10.817C10.6056 11.7967 11.573 12.5798 12.7095 13.1661C13.8459 13.7525 15.0651 14.0781 16.3671 14.143C16.3115 13.9116 16.2837 13.6701 16.2836 13.4185C16.2836 12.5401 16.5945 11.7901 17.2162 11.1684C17.8379 10.5468 18.5879 10.236 19.4664 10.236C20.386 10.236 21.1607 10.5708 21.7903 11.2406C22.5097 11.0981 23.1832 10.8404 23.811 10.4674C23.5691 11.2285 23.1031 11.8157 22.4129 12.2289C23.0473 12.1535 23.6568 11.9868 24.2414 11.7288H24.2415Z" fill="#9893A3"/>
</g>
<defs>
<clipPath id="clip0_1_319">
<rect x="8.72729" y="10.236" width="15.5152" height="12.6032" rx="1" fill="white"/>
</clipPath>
</defs>
</svg>
