<svg width="101" height="25" viewBox="0 0 101 25" fill="none" xmlns="http://www.w3.org/2000/svg">
<path fill-rule="evenodd" clip-rule="evenodd" d="M1.31785 11.2873C2.60968 5.18565 7.2723 0.902588 12.6229 0.902588C17.9734 0.902588 22.636 5.18565 23.9279 11.2873H22.9067C21.1841 11.2575 19.4968 11.8625 18.0818 13.0173C18.0001 13.0868 17.9148 13.1502 17.8265 13.2073H17.7073C17.619 13.1502 17.5337 13.0868 17.4521 13.0173C14.532 10.7098 10.7137 10.7098 7.79366 13.0173C7.71199 13.0868 7.62673 13.1502 7.53837 13.2073H7.41924C7.33087 13.1502 7.24561 13.0868 7.16395 13.0173C5.74892 11.8625 4.06162 11.2575 2.33901 11.2873H1.31785ZM21.0694 17.5573C21.5936 17.0776 22.2433 16.8266 22.9075 16.8473H24.2775V13.6373H22.9075C21.7376 13.6207 20.5944 14.0486 19.6483 14.8573C18.5554 15.8042 17.0651 15.8042 15.9721 14.8573C13.9852 13.2319 11.3472 13.2319 9.36019 14.8573C8.26726 15.8042 6.77697 15.8042 5.68404 14.8573C4.7262 14.0382 3.56668 13.6098 2.38232 13.6373H0.969727V16.8473H2.33977C3.00395 16.8266 3.65364 17.0776 4.17785 17.5573C6.16138 19.1839 8.79776 19.1839 10.7813 17.5573C11.3062 17.079 11.9554 16.8283 12.6194 16.8473C13.2838 16.8249 13.9339 17.0761 14.4574 17.5573C16.4444 19.1827 19.0824 19.1827 21.0694 17.5573ZM22.9075 22.5873C22.2433 22.5666 21.5936 22.8176 21.0694 23.2973C19.0824 24.9227 16.4444 24.9227 14.4574 23.2973C13.9339 22.8161 13.2838 22.5649 12.6194 22.5873C11.9554 22.5683 11.3062 22.819 10.7813 23.2973C8.79776 24.9239 6.16138 24.9239 4.17785 23.2973C3.65364 22.8176 3.00395 22.5666 2.33977 22.5873H0.969727V19.3773H2.38232C3.56668 19.3498 4.7262 19.7782 5.68404 20.5973C6.77697 21.5442 8.26726 21.5442 9.36019 20.5973C11.3472 18.9719 13.9852 18.9719 15.9721 20.5973C17.0651 21.5442 18.5554 21.5442 19.6483 20.5973C20.5944 19.7886 21.7376 19.3607 22.9075 19.3773H24.2775V22.5873H22.9075Z" fill="#9893A3" fill-opacity="0.6"/>
<path d="M35.1019 20.1373C34.0486 20.1373 33.2819 19.804 32.8019 19.1373C32.3219 18.4573 32.0819 17.4907 32.0819 16.2373V10.0773H34.3819V15.9373C34.3819 16.7507 34.5019 17.324 34.7419 17.6573C34.9819 17.9907 35.3686 18.1573 35.9019 18.1573C36.3286 18.1573 36.7019 18.0507 37.0219 17.8373C37.3552 17.624 37.7086 17.2773 38.0819 16.7973V10.0773H40.3819V19.8973H38.5019L38.3219 18.4573H38.2619C37.8352 18.964 37.3686 19.3707 36.8619 19.6773C36.3686 19.984 35.7819 20.1373 35.1019 20.1373Z" fill="#9893A3" fill-opacity="0.6"/>
<path d="M42.2952 19.8973V10.0773H44.1952L44.3552 11.4173H44.4352C44.8485 10.9773 45.2952 10.604 45.7752 10.2973C46.2685 9.99068 46.8219 9.83734 47.4352 9.83734C48.1552 9.83734 48.7285 9.99068 49.1552 10.2973C49.5952 10.604 49.9285 11.0373 50.1552 11.5973C50.6219 11.0907 51.1085 10.6707 51.6152 10.3373C52.1219 10.004 52.6885 9.83734 53.3152 9.83734C54.3552 9.83734 55.1219 10.1773 55.6152 10.8573C56.1085 11.524 56.3552 12.484 56.3552 13.7373V19.8973H54.0352V14.0373C54.0352 13.224 53.9085 12.6507 53.6552 12.3173C53.4152 11.984 53.0419 11.8173 52.5352 11.8173C51.9219 11.8173 51.2352 12.224 50.4752 13.0373V19.8973H48.1752V14.0373C48.1752 13.224 48.0485 12.6507 47.7952 12.3173C47.5552 11.984 47.1752 11.8173 46.6552 11.8173C46.0419 11.8173 45.3552 12.224 44.5952 13.0373V19.8973H42.2952Z" fill="#9893A3" fill-opacity="0.6"/>
<path d="M62.9107 20.1373C62.4573 20.1373 61.9973 20.0307 61.5307 19.8173C61.0773 19.5907 60.644 19.2707 60.2307 18.8573H60.1707L59.9707 19.8973H58.1507V5.77734H60.4507V9.41734L60.3907 11.0573C60.804 10.6973 61.2507 10.404 61.7307 10.1773C62.224 9.95068 62.724 9.83734 63.2307 9.83734C63.844 9.83734 64.3907 9.95734 64.8707 10.1973C65.3507 10.424 65.7573 10.7573 66.0907 11.1973C66.424 11.624 66.6773 12.144 66.8507 12.7573C67.024 13.3707 67.1107 14.0573 67.1107 14.8173C67.1107 15.6573 66.9907 16.4107 66.7507 17.0773C66.524 17.7307 66.2173 18.284 65.8307 18.7373C65.444 19.1907 64.9973 19.5373 64.4907 19.7773C63.984 20.0173 63.4573 20.1373 62.9107 20.1373ZM62.4307 18.2373C63.084 18.2373 63.6307 17.9573 64.0707 17.3973C64.5107 16.824 64.7307 15.9773 64.7307 14.8573C64.7307 13.8707 64.564 13.104 64.2307 12.5573C63.8973 12.0107 63.3573 11.7373 62.6107 11.7373C61.9173 11.7373 61.1973 12.104 60.4507 12.8373V17.4173C60.7973 17.724 61.1373 17.9373 61.4707 18.0573C61.8173 18.1773 62.1373 18.2373 62.4307 18.2373Z" fill="#9893A3" fill-opacity="0.6"/>
<path d="M68.4202 19.8973V10.0773H70.3202L70.4802 11.8173H70.5602C70.9069 11.1773 71.3269 10.6907 71.8202 10.3573C72.3135 10.0107 72.8202 9.83734 73.3402 9.83734C73.8069 9.83734 74.1802 9.90401 74.4602 10.0373L74.0602 12.0373C73.8869 11.984 73.7269 11.944 73.5802 11.9173C73.4335 11.8907 73.2535 11.8773 73.0402 11.8773C72.6535 11.8773 72.2469 12.0307 71.8202 12.3373C71.3935 12.6307 71.0269 13.1507 70.7202 13.8973V19.8973H68.4202Z" fill="#9893A3" fill-opacity="0.6"/>
<path d="M78.8858 20.1373C78.2058 20.1373 77.5725 20.024 76.9858 19.7973C76.3991 19.5573 75.8858 19.2173 75.4458 18.7773C75.0058 18.3373 74.6591 17.804 74.4058 17.1773C74.1658 16.5373 74.0458 15.8107 74.0458 14.9973C74.0458 14.1973 74.1725 13.4773 74.4258 12.8373C74.6791 12.1973 75.0125 11.6573 75.4258 11.2173C75.8525 10.7773 76.3391 10.4373 76.8858 10.1973C77.4325 9.95734 77.9925 9.83734 78.5658 9.83734C79.2325 9.83734 79.8191 9.95068 80.3258 10.1773C80.8325 10.404 81.2525 10.724 81.5858 11.1373C81.9325 11.5507 82.1925 12.044 82.3658 12.6173C82.5391 13.1907 82.6258 13.8173 82.6258 14.4973C82.6258 14.724 82.6125 14.9373 82.5858 15.1373C82.5725 15.3373 82.5525 15.4973 82.5258 15.6173H76.2858C76.3925 16.4973 76.6991 17.1773 77.2058 17.6573C77.7258 18.124 78.3858 18.3573 79.1858 18.3573C79.6125 18.3573 80.0058 18.2973 80.3658 18.1773C80.7391 18.044 81.1058 17.864 81.4658 17.6373L82.2458 19.0773C81.7791 19.384 81.2591 19.6373 80.6858 19.8373C80.1125 20.0373 79.5125 20.1373 78.8858 20.1373ZM76.2658 14.0573H80.6258C80.6258 13.2973 80.4591 12.704 80.1258 12.2773C79.8058 11.8373 79.3058 11.6173 78.6258 11.6173C78.0392 11.6173 77.5258 11.824 77.0858 12.2373C76.6458 12.6507 76.3725 13.2573 76.2658 14.0573Z" fill="#9893A3" fill-opacity="0.6"/>
<path d="M86.0625 20.1373C85.2359 20.1373 84.6559 19.8907 84.3225 19.3973C83.9892 18.904 83.8225 18.2307 83.8225 17.3773V5.77734H86.1225V17.4973C86.1225 17.7773 86.1759 17.9773 86.2825 18.0973C86.3892 18.204 86.5025 18.2573 86.6225 18.2573C86.6759 18.2573 86.7225 18.2573 86.7625 18.2573C86.8159 18.2573 86.8892 18.244 86.9825 18.2173L87.2825 19.9373C86.9759 20.0707 86.5692 20.1373 86.0625 20.1373Z" fill="#9893A3" fill-opacity="0.6"/>
<path d="M90.4922 20.1373C89.6656 20.1373 89.0856 19.8907 88.7522 19.3973C88.4189 18.904 88.2522 18.2307 88.2522 17.3773V5.77734H90.5522V17.4973C90.5522 17.7773 90.6056 17.9773 90.7122 18.0973C90.8189 18.204 90.9322 18.2573 91.0522 18.2573C91.1056 18.2573 91.1522 18.2573 91.1922 18.2573C91.2456 18.2573 91.3189 18.244 91.4122 18.2173L91.7122 19.9373C91.4056 20.0707 90.9989 20.1373 90.4922 20.1373Z" fill="#9893A3" fill-opacity="0.6"/>
<path d="M95.0619 20.1373C94.1952 20.1373 93.4952 19.8773 92.9619 19.3573C92.4286 18.824 92.1619 18.124 92.1619 17.2573C92.1619 16.7373 92.2686 16.2773 92.4819 15.8773C92.7086 15.464 93.0552 15.1107 93.5219 14.8173C94.0019 14.524 94.6019 14.2773 95.3219 14.0773C96.0552 13.8773 96.9286 13.724 97.9419 13.6173C97.9286 13.364 97.8886 13.124 97.8219 12.8973C97.7686 12.6573 97.6686 12.4507 97.5219 12.2773C97.3886 12.0907 97.2086 11.9507 96.9819 11.8573C96.7552 11.7507 96.4752 11.6973 96.1419 11.6973C95.6619 11.6973 95.1886 11.7907 94.7219 11.9773C94.2686 12.164 93.8219 12.3907 93.3819 12.6573L92.5419 11.1173C93.0886 10.7707 93.7019 10.4707 94.3819 10.2173C95.0619 9.96401 95.7952 9.83734 96.5819 9.83734C97.8086 9.83734 98.7219 10.204 99.3219 10.9373C99.9352 11.6573 100.242 12.704 100.242 14.0773V19.8973H98.3419L98.1819 18.8173H98.1019C97.6619 19.1907 97.1886 19.504 96.6819 19.7573C96.1886 20.0107 95.6486 20.1373 95.0619 20.1373ZM95.8019 18.3373C96.2019 18.3373 96.5619 18.244 96.8819 18.0573C97.2152 17.8707 97.5686 17.604 97.9419 17.2573V15.0573C97.2752 15.1373 96.7152 15.244 96.2619 15.3773C95.8086 15.5107 95.4419 15.664 95.1619 15.8373C94.8819 15.9973 94.6819 16.184 94.5619 16.3973C94.4419 16.6107 94.3819 16.8373 94.3819 17.0773C94.3819 17.5173 94.5152 17.8373 94.7819 18.0373C95.0486 18.2373 95.3886 18.3373 95.8019 18.3373Z" fill="#9893A3" fill-opacity="0.6"/>
</svg>
